# AST/ASF file generated using VICON BodyLanguage
# -----------------------------------------------
:version 1.10
:name VICON
:units
  mass 1.0
  length 0.45
  angle deg
:documentation
   .ast/.asf automatically generated from VICON data using
   VICON BodyBuilder and BodyLanguage model FoxedUp or BRILLIANT.MOD
:root
   order TX TY TZ RX RY RZ
   axis XYZ
   position 0 0 0  
   orientation 0 0 0 
:bonedata
  begin
     id 1 
     name lhipjoint
     direction 0.662698 -0.695252 0.27831 
     length 2.53073 
     axis 0 0 0  XYZ
  end
  begin
     id 2 
     name lfemur
     direction 0.34202 -0.939693 0  
     length 7.16147  
     axis 0 0 20  XYZ
    dof rx ry rz
    limits (-160.0 20.0)
           (-70.0 70.0)
           (-60.0 70.0)
  end
  begin
     id 3 
     name ltibia
     direction 0.34202 -0.939693 0   
     length 7.63967   
     axis 0 0 20   XYZ
    dof rx
    limits (-10.0 170.0)
  end
  begin
     id 4 
     name lfoot
     direction 0.0938457 -0.257721 0.961651   
     length 1.89793   
     axis -90 7.62852e-016 20   XYZ
    dof rx rz
    limits (-45.0 90.0)
           (-70.0 20.0)
  end
  begin
     id 5 
     name ltoes
     direction -0.00116841 -0.0030592 0.999995   
     length 0.955649   
     axis -90 7.62852e-016 20   XYZ
    dof rx
    limits (-90.0 20.0)
  end
  begin
     id 6 
     name rhipjoint
     direction -0.649445 -0.705948 0.282592   
     length 2.49238  
     axis 0 0 0  XYZ 
  end
  begin
     id 7 
     name rfemur
     direction -0.34202 -0.939693 0   
     length 6.90728   
     axis 0 0 -20   XYZ
    dof rx ry rz
    limits (-160.0 20.0)
           (-70.0 70.0)
           (-70.0 60.0)
  end
  begin
     id 8 
     name rtibia
     direction -0.34202 -0.939693 0   
     length 7.72868   
     axis 0 0 -20   XYZ
    dof rx
    limits (-10.0 170.0)
 end
 begin
     id 9 
     name rfoot
     direction -0.0920068 -0.252865 0.963117   
     length 1.97476  
     axis -90 -7.62852e-016 -20   XYZ
    dof rx rz
    limits (-45.0 90.0)
           (-20.0 70.0)
  end
  begin
     id 10 
     name rtoes
     direction 0.000391322 0.00230649 0.999997   
     length 0.992641   
     axis -90 -7.62852e-016 -20   XYZ
    dof rx
    limits (-90.0 20.0)
  end
  begin
     id 11 
     name lowerback
     direction -0.00875327 0.998321 -0.0572635   
     length 2.20024   
     axis 0 0 0   XYZ
    dof rx ry rz
    limits (-20.0 45.0)
           (-30.0 30.0)
           (-30.0 30.0)
  end
  begin
     id 12 
     name upperback
     direction 0.00753931 0.999972 -0.000360425   
     length 2.20538   
     axis 0 0 0   XYZ
    dof rx ry rz
    limits (-20.0 45.0)
           (-30.0 30.0)
           (-30.0 30.0)
  end
  begin
     id 13 
     name thorax
     direction 0.0117767 0.999601 0.0256663   
     length 2.21508   
     axis 0 0 0   XYZ
    dof rx ry rz
    limits (-20.0 45.0)
           (-30.0 30.0)
           (-30.0 30.0)
  end
  begin
     id 14 
     name lowerneck
     direction 0.060228 0.994909 0.0807986   
     length 1.7607   
     axis 0 0 0   XYZ
    dof rx ry rz
    limits (-20.0 45.0)
           (-30.0 30.0)
           (-30.0 30.0)
  end
  begin
     id 15 
     name upperneck
     direction -0.0563647 0.959594 -0.275685   
     length 1.75612   
     axis 0 0 0   XYZ
    dof rx ry rz
    limits (-20.0 45.0)
           (-30.0 30.0)
           (-30.0 30.0)
  end
  begin
     id 16
     name head
     direction -0.0161544 0.99458 -0.102714  
     length 1.79288  
     axis 0 0 0   XYZ
    dof rx ry rz
    limits (-20.0 45.0)
           (-30.0 30.0)
           (-30.0 30.0)
  end
  begin
     id 17 
     name lclavicle
     direction 0.93913 0.332189 -0.087669  
     length 3.52087  
     axis 0 0 0   XYZ
    dof ry rz
    limits (-20.0 10.0)
           (0.0 20.0)
  end
  begin
     id 18 
     name lhumerus
     direction 1 -4.48974e-011 -2.70836e-027   
     length 5.35289   
     axis -180 -30 -90   XYZ
    dof rx ry rz
    limits (-60.0 90.0)
           (-90.0 90.0)
           (-90.0 90.0)
  end
  begin
     id 19
     name lradius
     direction 1 -4.48961e-011 -9.76021e-027   
     length 3.27727   
     axis -180 -30 -90   XYZ
    dof rx
    limits (-10.0 170.0)
  end
  begin
     id 20
     name lwrist
     direction 1 -4.49103e-011 -2.23668e-026   
     length 1.63864   
     axis 1.44924e-014 90 90   XYZ
    dof ry
    limits (-180.0 0.0)
 end
  begin
     id 21 
     name lhand
     direction 1 3.0697e-005 0.000161777   
     length 0.54443   
     axis 2.85318e-014 90 90   XYZ
    dof rx rz
    limits (-90.0 90.0)
           (-45.0 45.0)
  end
  begin
     id 22 
     name lfingers
     direction 1 -4.49027e-011 -8.9447e-026   
     length 0.438912   
     axis 5.70628e-014 90 90   XYZ
    dof rx
    limits (0.0 90.0)
  end
  begin
     id 23
     name lthumb
     direction 0.707058 2.6516e-005 0.707156   
     length 0.630274   
     axis -90 45 -3.53137e-014   XYZ
    dof rx rz
    limits (-45.0 45.0)
           (-45.0 45.0)
  end
  begin
     id 24 
     name rclavicle
     direction -0.95274 0.284984 -0.105215   
     length 3.43401  
     axis 0 0 0   XYZ 
    dof ry rz
    limits (-10.0 20.0)
           (-20.0 0.0)
  end
  begin
     id 25 
     name rhumerus
     direction -0.999999 -0.000575019 -0.00106829  
     length 5.52077   
     axis -180 30 90   XYZ
    dof rx ry rz
    limits (-90.0 60.0)
           (-90.0 90.0)
           (-90.0 90.0)
  end
  begin
     id 26 
     name rradius
     direction -1 -4.4879e-011 -6.35415e-027   
     length 3.32364   
     axis -180 30 90   XYZ
    dof rx
    limits (-10.0 170.0)
  end
  begin
     id 27 
     name rwrist
     direction -1 -4.49048e-011 -9.98542e-027   
     length 1.66182   
     axis 6.32482e-015 -90 -90   XYZ
    dof ry
    limits (-180.0 0.0)
  end
  begin
     id 28
     name rhand
     direction -1 -4.48978e-011 -1.99771e-026   
     length 0.732235   
     axis 1.27479e-014 -90 -90   XYZ
    dof rx rz
    limits (-90.0 90.0)
           (-45.0 45.0)
  end
  begin
     id 29
     name rfingers
     direction -1 -4.49144e-011 -3.99245e-026   
     length 0.590347   
     axis 2.5496e-014 -90 -90   XYZ
    dof rx
    limits (0.0 90.0)
  end
  begin
     id 30
     name rthumb
     direction -0.707107 -6.35121e-011 0.707107   
     length 0.847624   
     axis -90 -45 -2.82974e-014   XYZ
    dof rx rz
    limits (-45.0 45.0)
           (-45.0 45.0)
  end
:hierarchy
  begin
    root lhipjoint rhipjoint lowerback
    lhipjoint lfemur
    lfemur ltibia
    ltibia lfoot
    lfoot ltoes
    rhipjoint rfemur
    rfemur rtibia
    rtibia rfoot
    rfoot rtoes
    lowerback upperback
    upperback thorax
    thorax lowerneck lclavicle rclavicle
    lowerneck upperneck
    upperneck head
    lclavicle lhumerus
    lhumerus lradius
    lradius lwrist
    lwrist lhand lthumb
    lhand lfingers
    rclavicle rhumerus
    rhumerus rradius
    rradius rwrist
    rwrist rhand rthumb
    rhand rfingers
  end

#!OML:ASF G:\Work\Work\Patient Classification 1\Elijah\terrain1\Elijah.ASF
:FULLY-SPECIFIED
:DEGREES
1854
root -0.869099 20.1703 9.53786 352.462 67.0789 -18.0192
lowerback 12.3468 1.53502 9.68911
upperback 3.32965 3.47507 2.65341
thorax -2.99661 1.7496 -3.1545
lowerneck -11.9471 14.0353 14.7402
upperneck 21.6638 23.4388 -21.8161
head 14.0596 9.96759 -6.50821
rclavicle -7.81224e-014 2.62396e-014
rhumerus -27.3746 12.0313 -87.4309
rradius 54.8305
rwrist -3.37523
rhand -5.931 20.3162
rfingers 7.12502
rthumb 19.8987 -8.68511
lclavicle -7.81224e-014 2.62396e-014
lhumerus -36.9542 5.75873 83.0279
lradius 30.1445
lwrist -2.52558
lhand -7.20379 26.5104
lfingers 7.12502
lthumb 18.6748 55.634
rfemur 3.69628 -3.38871 30.5502
rtibia 9.71131
rfoot -7.76303 -12.8175
rtoes -19.0223
lfemur -69.9484 9.76317 -20.0012
ltibia 75.3518
lfoot -12.9898 -13.005
ltoes 10.4123
1855
root -0.779016 20.1773 9.56011 352.037 67.0578 -18.4307
lowerback 12.7717 1.51307 9.70586
upperback 3.38041 3.49809 2.60453
thorax -3.1686 1.75538 -3.23715
lowerneck -12.1958 14.0824 14.5684
upperneck 21.7518 23.4724 -21.6307
head 14.097 9.9564 -6.38507
rclavicle -3.97569e-015 -2.62396e-014
rhumerus -27.3774 12.365 -87.5135
rradius 55.2199
rwrist -3.77284
rhand -6.34558 20.4312
rfingers 7.12502
rthumb 19.5001 -8.61098
lclavicle -3.97569e-015 -2.62396e-014
lhumerus -36.3755 5.56839 82.7501
lradius 29.9225
lwrist -2.77349
lhand -8.28578 26.2287
lfingers 7.12502
lthumb 17.6338 55.4491
rfemur 4.10073 -3.11444 30.6464
rtibia 9.61613
rfoot -7.55056 -12.828
rtoes -17.7785
lfemur -69.5774 9.27179 -19.6909
ltibia 75.3162
lfoot -13.6286 -12.2205
ltoes 7.32066
1856
root -0.695342 20.196 9.58193 352.13 67.078 -18.516
lowerback 13.092 1.51109 9.51437
upperback 3.3585 3.50909 2.55731
thorax -3.37505 1.75086 -3.19884
lowerneck -12.3241 14.11 14.3202
upperneck 21.5999 23.513 -21.6432
head 14.0356 9.94769 -6.32496
rclavicle -3.1408e-014 -8.74653e-015
rhumerus -27.4415 12.3227 -87.7422
rradius 55.4856
rwrist -3.6716
rhand -7.41453 20.6755
rfingers 7.12502
rthumb 18.4721 -8.46747
lclavicle -3.1408e-014 -8.74653e-015
lhumerus -35.822 5.65295 81.9763
lradius 29.3779
lwrist -4.40558
lhand -7.77041 23.8438
lfingers 7.12502
lthumb 18.1297 53.0188
rfemur 4.21877 -2.82608 30.6724
rtibia 9.56601
rfoot -7.29488 -13.2127
rtoes -16.0473
lfemur -69.2833 8.72917 -19.3954
ltibia 75.0942
lfoot -13.8708 -11.9057
ltoes 7.89058
1857
root -0.605281 20.2243 9.59812 353.497 67.2738 -17.2513
lowerback 13.4103 1.5863 9.01027
upperback 3.26783 3.55795 2.20072
thorax -3.64769 1.7584 -3.32034
lowerneck -12.422 14.0104 14.3457
upperneck 21.4982 23.2818 -21.5819
head 13.9502 9.84703 -6.35278
rclavicle -7.23576e-014 -1.59028e-014
rhumerus -27.6619 11.985 -87.9976
rradius 55.8012
rwrist -3.86387
rhand -7.81259 20.9217
rfingers 7.12502
rthumb 18.0892 -8.25715
lclavicle -7.23576e-014 -1.59028e-014
lhumerus -35.3717 4.82205 81.7586
lradius 29.4439
lwrist -3.95957
lhand -9.11251 24.0689
lfingers 7.12502
lthumb 16.8381 53.3588
rfemur 4.30217 -2.62871 30.0549
rtibia 9.49906
rfoot -6.6302 -13.5138
rtoes -16.4944
lfemur -68.8088 8.05893 -19.7949
ltibia 74.7519
lfoot -14.4651 -11.3737
ltoes 6.91797
1858
root -0.506678 20.2578 9.61884 354.899 67.5725 -15.9682
lowerback 13.5794 1.63609 8.3701
upperback 3.16997 3.53917 1.93672
thorax -3.8693 1.73738 -3.25164
lowerneck -12.5155 13.8617 14.1202
upperneck 21.501 23.0066 -21.353
head 13.8307 9.71897 -6.28947
rclavicle 2.42517e-014 -1.19271e-015
rhumerus -28.0277 11.949 -88.0992
rradius 56.2541
rwrist -4.75206
rhand -7.54293 20.939
rfingers 7.12502
rthumb 18.3486 -8.21564
lclavicle 2.42517e-014 -1.19271e-015
lhumerus -34.9168 4.86229 81.4885
lradius 29.3926
lwrist -4.4054
lhand -10.3402 24.0635
lfingers 7.12502
lthumb 15.656 53.45
rfemur 4.3309 -2.54694 29.4222
rtibia 9.53412
rfoot -5.63891 -13.5739
rtoes -19.2078
lfemur -68.3528 7.27142 -20.2401
ltibia 74.4863
lfoot -15.2136 -10.753
ltoes 4.49883
1859
root -0.404621 20.2947 9.64211 355.304 67.8974 -15.8793
lowerback 13.5072 1.6429 7.97573
upperback 3.11852 3.4872 1.94195
thorax -3.91546 1.71063 -3.01733
lowerneck -12.6526 13.8447 13.9343
upperneck 21.5722 22.9963 -21.2618
head 13.8443 9.69372 -6.22106
rclavicle 4.11484e-014 -4.37326e-015
rhumerus -28.2905 11.983 -88.0362
rradius 56.6136
rwrist -5.64428
rhand -7.87504 21.0144
rfingers 7.12502
rthumb 18.0291 -8.17003
lclavicle 4.11484e-014 -4.37326e-015
lhumerus -34.2626 5.46678 81.2209
lradius 29.0466
lwrist -5.63222
lhand -11.7362 24.3123
lfingers 7.12502
lthumb 14.3112 53.7991
rfemur 4.21561 -2.52436 29.2843
rtibia 9.60211
rfoot -4.64195 -13.7077
rtoes -21.1096
lfemur -68.1197 6.41479 -20.125
ltibia 74.3738
lfoot -15.7871 -10.4108
ltoes 4.2354
1860
root -0.29559 20.3392 9.65525 355.784 68.1434 -15.8307
lowerback 13.2855 1.75331 7.78607
upperback 3.06143 3.57822 1.84183
thorax -3.85011 1.7562 -3.02137
lowerneck -12.9609 13.8505 14.0196
upperneck 21.8453 22.9693 -21.0991
head 14.001 9.66513 -6.16962
rclavicle 2.52457e-014 -9.93923e-015
rhumerus -28.5185 11.705 -87.9572
rradius 56.7805
rwrist -6.24298
rhand -8.68662 21.3673
rfingers 7.12502
rthumb 17.2481 -7.88726
lclavicle 2.52457e-014 -9.93923e-015
lhumerus -33.4741 6.08742 80.8381
lradius 28.6277
lwrist -7.13517
lhand -13.4912 24.7447
lfingers 7.12502
lthumb 12.6197 54.3435
rfemur 4.02302 -2.40312 29.054
rtibia 9.53161
rfoot -3.39947 -13.864
rtoes -22.0713
lfemur -67.9237 5.46396 -19.9099
ltibia 74.3069
lfoot -16.3093 -10.092
ltoes 6.0122
1861
root -0.18429 20.3874 9.67109 356.001 68.2912 -16.0602
lowerback 13.0838 1.88365 7.70871
upperback 2.96388 3.71379 1.71666
thorax -3.82469 1.81975 -3.12214
lowerneck -13.2709 13.757 14.0091
upperneck 22.1146 22.7628 -20.8155
head 14.0796 9.56141 -6.09972
rclavicle -2.90226e-014 0
rhumerus -28.841 11.5027 -88.0256
rradius 56.8722
rwrist -6.83329
rhand -9.69083 21.4686
rfingers 7.12502
rthumb 16.2814 -7.8679
lclavicle -2.90226e-014 0
lhumerus -32.9114 5.94813 80.6682
lradius 28.7129
lwrist -7.56762
lhand -14.5004 25.0595
lfingers 7.12502
lthumb 11.6465 54.7158
rfemur 3.79177 -2.19656 28.9431
rtibia 9.50716
rfoot -1.96758 -13.9228
rtoes -22.1321
lfemur -67.7232 4.71608 -19.5753
ltibia 74.2125
lfoot -16.6682 -10.0136
ltoes 8.26135
1862
root -0.0760112 20.4355 9.69485 355.515 68.4021 -16.9954
lowerback 12.994 1.94878 7.80232
upperback 2.82097 3.80426 1.64988
thorax -3.90579 1.85459 -3.25698
lowerneck -13.4347 13.6501 14.2219
upperneck 22.2621 22.5601 -20.7923
head 14.1571 9.47267 -6.17409
rclavicle 1.07344e-014 1.19271e-014
rhumerus -29.1892 11.4275 -88.2325
rradius 56.8573
rwrist -7.39848
rhand -10.6309 21.5015
rfingers 7.12502
rthumb 15.376 -7.90678
lclavicle 1.07344e-014 1.19271e-014
lhumerus -32.4802 5.64298 80.5701
lradius 28.992
lwrist -7.57821
lhand -15.3034 25.5584
lfingers 7.12502
lthumb 10.8721 55.2569
rfemur 3.44314 -1.98603 29.192
rtibia 9.79307
rfoot -1.20368 -14.0853
rtoes -19.6637
lfemur -67.5448 4.30712 -19.1093
ltibia 74.0148
lfoot -17.0148 -9.86423
ltoes 8.53334
1863
root 0.0351161 20.4892 9.71316 355.785 68.5779 -17.1794
lowerback 12.8439 2.0598 7.74062
upperback 2.65741 3.92044 1.45866
thorax -3.97368 1.90193 -3.43698
lowerneck -13.653 13.5161 14.6998
upperneck 22.4654 22.3078 -20.901
head 14.3211 9.36827 -6.35934
rclavicle -1.74931e-014 -7.95139e-016
rhumerus -29.5015 11.1323 -88.285
rradius 56.7486
rwrist -8.04417
rhand -11.2258 21.6372
rfingers 7.12502
rthumb 14.803 -7.81407
lclavicle -1.74931e-014 -7.95139e-016
lhumerus -31.9551 5.88054 80.3452
lradius 29.1392
lwrist -8.21063
lhand -16.3749 25.8885
lfingers 7.12502
lthumb 9.83843 55.6387
rfemur 2.91245 -1.81005 29.1134
rtibia 10.3402
rfoot -0.598056 -14.3514
rtoes -16.8628
lfemur -67.3121 3.83044 -19.0498
ltibia 73.6582
lfoot -17.4677 -9.32895
ltoes 7.11934
1864
root 0.152398 20.5484 9.73245 356.637 68.783 -16.7454
lowerback 12.5853 2.21597 7.41324
upperback 2.5191 4.04694 1.22773
thorax -3.96903 1.96045 -3.50482
lowerneck -13.3397 13.4259 14.1218
upperneck 22.2044 22.0068 -20.2114
head 13.8637 9.27685 -6.06319
rclavicle 2.08724e-014 1.39149e-014
rhumerus -29.7949 10.7552 -88.2426
rradius 56.6285
rwrist -8.76857
rhand -11.5483 21.5997
rfingers 7.12502
rthumb 14.4923 -7.87413
lclavicle 2.08724e-014 1.39149e-014
lhumerus -31.7023 3.54055 80.2111
lradius 30.0122
lwrist -6.31648
lhand -16.2601 25.6465
lfingers 7.12502
lthumb 9.94925 55.3913
rfemur 2.27238 -2.05963 28.7119
rtibia 11.0237
rfoot 1.10403 -14.0194
rtoes -17.3801
lfemur -66.9366 3.07288 -19.0426
ltibia 73.2031
lfoot -17.8053 -8.94171
ltoes 7.36676
1865
root 0.277562 20.6069 9.75326 357.139 68.8733 -16.7213
lowerback 12.1701 2.30929 7.20922
upperback 2.40479 4.09722 1.05003
thorax -3.85646 1.98606 -3.56358
lowerneck -13.9668 13.469 15.1578
upperneck 22.8502 22.051 -20.5612
head 14.4949 9.28083 -6.36075
rclavicle -6.63941e-014 1.55052e-014
rhumerus -30.0525 10.6607 -88.3499
rradius 56.423
rwrist -9.13909
rhand -11.7148 21.5822
rfingers 7.12502
rthumb 14.3319 -7.90311
lclavicle -6.63941e-014 1.55052e-014
lhumerus -30.967 6.63872 79.7113
lradius 29.6218
lwrist -9.37335
lhand -16.3846 24.7025
lfingers 7.12502
lthumb 9.82909 54.4531
rfemur 1.51511 -2.44803 28.3969
rtibia 11.7793
rfoot 3.14983 -13.3715
rtoes -19.015
lfemur -66.5415 2.2451 -18.6343
ltibia 72.7327
lfoot -17.8666 -9.038
ltoes 11.0476
1866
root 0.407924 20.6689 9.77096 357.783 68.9511 -16.7325
lowerback 11.4722 2.38358 7.03669
upperback 2.26226 4.10586 0.891316
thorax -3.62091 1.99474 -3.59735
lowerneck -13.7928 13.4886 15.0203
upperneck 22.6781 22.0255 -20.4032
head 14.3266 9.28696 -6.27924
rclavicle -5.85421e-014 1.19271e-014
rhumerus -30.3398 10.828 -88.4484
rradius 56.1946
rwrist -9.46079
rhand -11.6825 21.5541
rfingers 7.12502
rthumb 14.363 -7.92902
lclavicle -5.85421e-014 1.19271e-014
lhumerus -30.6266 5.71565 79.3553
lradius 30.2659
lwrist -7.86506
lhand -16.9742 24.8
lfingers 7.12502
lthumb 9.26023 54.5766
rfemur 0.474631 -2.64895 28.074
rtibia 12.7136
rfoot 4.62535 -13.107
rtoes -18.1344
lfemur -66.4297 1.68089 -18.6176
ltibia 72.2387
lfoot -18.3599 -7.99093
ltoes 7.83096
1867
root 0.531643 20.7334 9.78971 358.126 69.1425 -16.6103
lowerback 11.3513 2.38989 6.83069
upperback 2.15146 4.07229 0.717111
thorax -3.67575 1.97309 -3.65719
lowerneck -13.6771 13.4932 15.5136
upperneck 22.6135 21.986 -20.6267
head 14.3739 9.30044 -6.4657
rclavicle -4.90004e-014 -2.5842e-014
rhumerus -30.7408 11.0661 -88.5646
rradius 56.026
rwrist -10.1649
rhand -11.6982 21.3999
rfingers 7.12502
rthumb 14.3478 -8.08427
lclavicle -4.90004e-014 -2.5842e-014
lhumerus -30.6711 2.92892 79.1209
lradius 31.5851
lwrist -4.69467
lhand -17.3357 25.329
lfingers 7.12502
lthumb 8.91145 55.1208
rfemur -0.227755 -2.5333 27.7507
rtibia 13.846
rfoot 5.78319 -13.4097
rtoes -15.5769
lfemur -65.816 1.09535 -18.6418
ltibia 71.6967
lfoot -18.7735 -7.42672
ltoes 6.19243
1868
root 0.649709 20.7921 9.80614 358.239 69.4257 -16.7517
lowerback 11.2697 2.31112 6.81181
upperback 1.99616 3.95337 0.535314
thorax -3.79492 1.90369 -3.82243
lowerneck -13.4298 13.4983 15.4322
upperneck 22.5389 21.9272 -20.3717
head 14.2146 9.30664 -6.37067
rclavicle -5.70015e-014 1.41137e-014
rhumerus -31.156 11.3303 -88.7872
rradius 55.8301
rwrist -10.6255
rhand -11.9308 21.2554
rfingers 7.12502
rthumb 14.1237 -8.24454
lclavicle -5.70015e-014 1.41137e-014
lhumerus -30.5529 3.19294 78.897
lradius 32.3007
lwrist -4.72144
lhand -17.5526 25.6838
lfingers 7.12502
lthumb 8.70209 55.4845
rfemur -0.991677 -2.45803 27.5215
rtibia 14.9817
rfoot 7.18522 -13.7199
rtoes -13.6733
lfemur -65.2789 0.476628 -18.5777
ltibia 71.1537
lfoot -19.0843 -6.92337
ltoes 5.17838
